# xmcd
#
# Track frame offsets:
# 150
# 18231
# 33612
# 49143
# 61127
# 75454
# 92007
# 108614
# 126581
# 143163
# 158683
# 177018
# 191457
# 208930
# 227689
# 246108
# 265417
#
# Disc length: 3795 seconds
#
#
# Revision: 0
# Processed by: cddbd v1.5PL3 Copyright (c) Steve Scherf et al.
# Submitted via: FreeRIP 2.53 
#
DISCID=e80ed111
DTITLE=Chesney, Kenny - Greatist Hits
DYEAR=1900
DGENRE=
TTITLE0=I Lost It
TTITLE1=Don't Happen Twice
TTITLE2=The Tin Man
TTITLE3=Fall In Love
TTITLE4=All I Need To Know
TTITLE5=For The First Time
TTITLE6=Me And You
TTITLE7=Back Where I Come From
TTITLE8=When I Close My Eyes
TTITLE9=She's Got It All
TTITLE10=That's Why I'm Here
TTITLE11=How Forever Feels
TTITLE12=You Had Me From Hello
TTITLE13=She Thinks My Tractor Is Sexy
TTITLE14=What I Need To Do
TTITLE15=Baptism (duet with Randy Travis)
TTITLE16=Because Of Your Love
EXTD=
EXTT0=
EXTT1=
EXTT2=
EXTT3=
EXTT4=
EXTT5=
EXTT6=
EXTT7=
EXTT8=
EXTT9=
EXTT10=
EXTT11=
EXTT12=
EXTT13=
EXTT14=
EXTT15=
EXTT16=
PLAYORDER=
